<?xml version="1.0" encoding="utf-8" ?><svg xmlns="http://www.w3.org/2000/svg" width="2048" height="2048" viewBox="0 0 2048 2048"><path fill="#0f172a" d="M0 0L2048 0L2048 1409.87L2048 1413.46L2048 2048L0 2048L0 0Z"/><path fill="#21262C" d="M2048 1413.46C2043.08 1412.95 2039.23 1413.38 2035.98 1410.22L2036.98 1408.78C2041.51 1407.35 2043.74 1407.73 2048 1409.87L2048 1413.46Z"/><path fill="#8FD3AA" d="M591.364 409.42C618.804 410.02 648.047 409.464 675.656 409.448L830.725 409.482L1320.4 409.438C1319.58 449.153 1321.16 489.884 1320.16 529.709L1321.11 530.037C1325.25 531.609 1330.38 531.096 1334.96 531.043C1375.2 531.032 1416.04 531.36 1456.23 530.905C1456.23 580.057 1455.14 633.419 1456.28 682.196C1465.82 682.772 1477.03 682.718 1486.64 682.499C1520.83 681.722 1556.05 683.524 1590.15 682.078L1590.08 1517.02L1456.33 1517.1L1456.24 1638.39L978.066 1638.49C895.172 1638.51 810.551 1639.31 727.827 1638.33L727.881 1557.84C727.878 1549.09 728.294 1524.43 727.285 1517.09L591.387 1516.99C591.554 1484.82 591.553 1452.66 591.383 1420.5C591.409 1405.12 592.296 1380.01 591.185 1365.31L457.832 1365.35L457.922 530.977L591.071 530.871C592.088 491.172 591.399 449.277 591.364 409.42Z"/><path fill="#8FD3AA" d="M1456.28 682.196C1465.82 682.772 1477.03 682.718 1486.64 682.499C1520.83 681.722 1556.05 683.524 1590.15 682.078L1590.08 1517.02L1456.33 1517.1L1456.24 1638.39L978.066 1638.49C895.172 1638.51 810.551 1639.31 727.827 1638.33L727.881 1557.84C727.878 1549.09 728.294 1524.43 727.285 1517.09L591.387 1516.99C591.554 1484.82 591.553 1452.66 591.383 1420.5C591.409 1405.12 592.296 1380.01 591.185 1365.31L591.737 1365.02C636.63 1366.57 682.97 1364.46 727.946 1365.34C742.884 1365.83 780.799 1366.85 794.82 1365.19C852.596 1366.31 914.472 1365.24 972.58 1365.24L1320.17 1365.19L1320.18 864.405C1320.19 804.717 1321.17 742.447 1320.05 682.93L1320.23 682.208C1325.2 683.017 1344.86 682.579 1351.29 682.559L1420.07 682.46C1427.61 682.445 1449.05 681.954 1456.04 682.753L1456.28 682.196Z"/><path fill="#62A47D" d="M1456.28 682.196C1465.82 682.772 1477.03 682.718 1486.64 682.499C1520.83 681.722 1556.05 683.524 1590.15 682.078L1590.08 1517.02L1456.33 1517.1L1456.24 1638.39L978.066 1638.49C895.172 1638.51 810.551 1639.31 727.827 1638.33L727.881 1557.84C727.878 1549.09 728.294 1524.43 727.285 1517.09L727.845 1516.94C745.373 1518.29 784.049 1517.01 803.173 1517.01L959.976 1516.99L1456.35 1517.04L1456.18 917.143C1456.15 839.909 1457.34 759.653 1456.04 682.753L1456.28 682.196Z"/><path fill="#62A47D" d="M591.737 1365.02C636.63 1366.57 682.97 1364.46 727.946 1365.34C727.653 1397.56 727.613 1429.78 727.827 1462C727.837 1478.69 727.084 1500.62 727.845 1516.94L727.285 1517.09L591.387 1516.99C591.554 1484.82 591.553 1452.66 591.383 1420.5C591.409 1405.12 592.296 1380.01 591.185 1365.31L591.737 1365.02Z"/><path fill="#B9E7C8" d="M727.838 682.594L1320.05 682.93C1321.17 742.447 1320.19 804.717 1320.18 864.405L1320.17 1365.19L972.58 1365.24C914.472 1365.24 852.596 1366.31 794.82 1365.19C777.467 1364.04 746.624 1364.91 728.113 1364.75L727.827 977.512C727.824 880.146 726.477 779.699 727.838 682.594Z"/><path fill="#62A47D" d="M457.922 530.977L591.071 530.871L591.289 1108.76L591.313 1281.02L591.236 1335.82C591.248 1343.14 591.013 1358.3 591.737 1365.02L591.185 1365.31L457.832 1365.35L457.922 530.977Z"/><path fill="#62A47D" d="M591.364 409.42C618.804 410.02 648.047 409.464 675.656 409.448L830.725 409.482L1320.4 409.438C1319.58 449.153 1321.16 489.884 1320.16 529.709L1320.15 531.029C1290.43 531.629 1258.19 531.035 1228.25 531.048L1034.81 531.05L591.071 530.871C592.088 491.172 591.399 449.277 591.364 409.42Z"/><path fill="#62A47D" d="M1320.16 529.709L1321.11 530.037C1325.25 531.609 1330.38 531.096 1334.96 531.043C1375.2 531.032 1416.04 531.36 1456.23 530.905C1456.23 580.057 1455.14 633.419 1456.28 682.196L1456.04 682.753C1449.05 681.954 1427.61 682.445 1420.07 682.46L1351.29 682.559C1344.86 682.579 1325.2 683.017 1320.23 682.208C1320.71 632.983 1321.3 580.056 1320.15 531.029L1320.16 529.709Z"/><path fill="#21262C" d="M1321.11 530.037C1321.47 522.91 1320.52 500.95 1323.59 497.149C1325.96 498.079 1330.95 516.346 1331.64 519.784L1333.19 515.468L1334.14 515.805C1334.7 518.838 1335.47 520.898 1334.4 523.731C1332.85 522.55 1333.52 523.348 1332.65 521.126C1329.61 521.975 1329.8 522.285 1327.75 524.844L1327.76 525.886L1330.49 525.688L1331.63 527.33C1329.35 528.518 1327.24 528.184 1324.61 528.154L1324.15 528.664C1329.84 528.656 1330.4 527.939 1334.96 531.043C1330.38 531.096 1325.25 531.609 1321.11 530.037Z"/><path fill="#21262C" d="M1321.97 415.491C1323.97 419.252 1324.27 425.771 1324.77 430.191L1324.93 429.539C1326.12 434.194 1325.64 439.349 1325.5 444.191C1324.77 446.677 1324.7 447.667 1323.11 449.699C1320.17 445.779 1321.33 421.3 1321.97 415.491Z"/><path fill="#21262C" d="M18.7112 1354.37C19.7678 1354.86 20.0889 1355.3 21.0093 1356.09C22.1996 1360.53 21.1753 1363.31 20.2495 1367.82L17.6111 1365.38C16.8119 1362.61 19.0223 1359.05 18.7112 1354.37Z"/></svg>